# AST/ASF file generated using VICON BodyLanguage
# -----------------------------------------------
:version 1.10
:name VICON
:units
  mass 1.0
  length 0.45
  angle deg
:documentation
   .ast/.asf automatically generated from VICON data using
   VICON BodyBuilder and BodyLanguage model FoxedUp or BRILLIANT.MOD
:root
   order TX TY TZ RX RY RZ
   axis XYZ
   position 0 0 0  
   orientation 0 0 0 
:bonedata
  begin
     id 1 
     name lhipjoint
     direction 0.588788 -0.725889 0.355548 
     length 2.37778 
     axis 0 0 0  XYZ
  end
  begin
     id 2 
     name lfemur
     direction 0.34202 -0.939693 0  
     length 6.86393  
     axis 0 0 20  XYZ
    dof rx ry rz
    limits (-160.0 20.0)
           (-70.0 70.0)
           (-60.0 70.0)
  end
  begin
     id 3 
     name ltibia
     direction 0.34202 -0.939693 0   
     length 7.32851   
     axis 0 0 20   XYZ
    dof rx
    limits (-10.0 170.0)
  end
  begin
     id 4 
     name lfoot
     direction 0.0626533 -0.172138 0.983078   
     length 1.98929   
     axis -90 7.62852e-016 20   XYZ
    dof rx rz
    limits (-45.0 90.0)
           (-70.0 20.0)
  end
  begin
     id 5 
     name ltoes
     direction 1.53647e-011 -4.21734e-011 1   
     length 1.00479   
     axis -90 7.62852e-016 20   XYZ
    dof rx
    limits (-90.0 20.0)
  end
  begin
     id 6 
     name rhipjoint
     direction -0.59141 -0.724168 0.354705   
     length 2.38343  
     axis 0 0 0  XYZ 
  end
  begin
     id 7 
     name rfemur
     direction -0.34202 -0.939693 0   
     length 6.95589   
     axis 0 0 -20   XYZ
    dof rx ry rz
    limits (-160.0 20.0)
           (-70.0 70.0)
           (-70.0 60.0)
  end
  begin
     id 8 
     name rtibia
     direction -0.34202 -0.939693 0   
     length 7.32327   
     axis 0 0 -20   XYZ
    dof rx
    limits (-10.0 170.0)
 end
 begin
     id 9 
     name rfoot
     direction -0.0660461 -0.18146 0.981178   
     length 1.85272  
     axis -90 -7.62852e-016 -20   XYZ
    dof rx rz
    limits (-45.0 90.0)
           (-20.0 70.0)
  end
  begin
     id 10 
     name rtoes
     direction -1.53586e-011 -4.21988e-011 1   
     length 0.93746   
     axis -90 -7.62852e-016 -20   XYZ
    dof rx
    limits (-90.0 20.0)
  end
  begin
     id 11 
     name lowerback
     direction -0.0107982 0.991059 0.13299   
     length 1.98691   
     axis 0 0 0   XYZ
    dof rx ry rz
    limits (-20.0 45.0)
           (-30.0 30.0)
           (-30.0 30.0)
  end
  begin
     id 12 
     name upperback
     direction 0.0076296 0.999916 0.0104576   
     length 1.99501   
     axis 0 0 0   XYZ
    dof rx ry rz
    limits (-20.0 45.0)
           (-30.0 30.0)
           (-30.0 30.0)
  end
  begin
     id 13 
     name thorax
     direction 0.01176 0.998615 -0.0512909   
     length 2.03144   
     axis 0 0 0   XYZ
    dof rx ry rz
    limits (-20.0 45.0)
           (-30.0 30.0)
           (-30.0 30.0)
  end
  begin
     id 14 
     name lowerneck
     direction -0.0171909 0.999644 0.0204011   
     length 1.71818   
     axis 0 0 0   XYZ
    dof rx ry rz
    limits (-20.0 45.0)
           (-30.0 30.0)
           (-30.0 30.0)
  end
  begin
     id 15 
     name upperneck
     direction 0.0250902 0.997482 -0.0663316   
     length 1.66199   
     axis 0 0 0   XYZ
    dof rx ry rz
    limits (-20.0 45.0)
           (-30.0 30.0)
           (-30.0 30.0)
  end
  begin
     id 16
     name head
     direction 0.00881535 0.99956 -0.0283365  
     length 1.81545  
     axis 0 0 0   XYZ
    dof rx ry rz
    limits (-20.0 45.0)
           (-30.0 30.0)
           (-30.0 30.0)
  end
  begin
     id 17 
     name lclavicle
     direction 0.840411 0.486876 -0.238035  
     length 3.30409  
     axis 0 0 0   XYZ
    dof ry rz
    limits (-20.0 10.0)
           (0.0 20.0)
  end
  begin
     id 18 
     name lhumerus
     direction 1 -4.48977e-011 -5.16239e-027   
     length 4.62672   
     axis 180 -30 -90   XYZ
    dof rx ry rz
    limits (-60.0 90.0)
           (-90.0 90.0)
           (-90.0 90.0)
  end
  begin
     id 19
     name lradius
     direction 1 -4.48977e-011 -8.71171e-027   
     length 3.11018   
     axis 180 -30 -90   XYZ
    dof rx
    limits (-10.0 170.0)
  end
  begin
     id 20
     name lwrist
     direction 1 -4.48912e-011 -1.03764e-026   
     length 1.55509   
     axis 9.09556e-015 90 90   XYZ
    dof ry
    limits (-180.0 0.0)
 end
  begin
     id 21 
     name lhand
     direction 1 -4.49072e-011 -2.07528e-026   
     length 0.743834   
     axis 1.3242e-014 90 90   XYZ
    dof rx rz
    limits (-90.0 90.0)
           (-45.0 45.0)
  end
  begin
     id 22 
     name lfingers
     direction 1 -4.48909e-011 -4.15056e-026   
     length 0.599698   
     axis 2.64841e-014 90 90   XYZ
    dof rx
    limits (0.0 90.0)
  end
  begin
     id 23
     name lthumb
     direction 0.707107 -6.35013e-011 0.707107   
     length 0.86105   
     axis -90 45 2.85299e-015   XYZ
    dof rx rz
    limits (-45.0 45.0)
           (-45.0 45.0)
  end
  begin
     id 24 
     name rclavicle
     direction -0.835208 0.500237 -0.228452   
     length 3.2716  
     axis 0 0 0   XYZ 
    dof ry rz
    limits (-10.0 20.0)
           (-20.0 0.0)
  end
  begin
     id 25 
     name rhumerus
     direction -1 -4.48978e-011 -5.1953e-028  
     length 4.55919   
     axis 180 30 90   XYZ
    dof rx ry rz
    limits (-90.0 60.0)
           (-90.0 90.0)
           (-90.0 90.0)
  end
  begin
     id 26 
     name rradius
     direction -1 -4.48961e-011 -5.99546e-027   
     length 3.22748   
     axis 180 30 90   XYZ
    dof rx
    limits (-10.0 170.0)
  end
  begin
     id 27 
     name rwrist
     direction -1 -4.48986e-011 -1.03764e-026   
     length 1.61374   
     axis 9.09556e-015 -90 -90   XYZ
    dof ry
    limits (-180.0 0.0)
  end
  begin
     id 28
     name rhand
     direction -1 -4.4899e-011 -2.07528e-026   
     length 0.700882   
     axis 1.3242e-014 -90 -90   XYZ
    dof rx rz
    limits (-90.0 90.0)
           (-45.0 45.0)
  end
  begin
     id 29
     name rfingers
     direction -1 -4.48991e-011 -4.15056e-026   
     length 0.565069   
     axis 2.64841e-014 -90 -90   XYZ
    dof rx
    limits (0.0 90.0)
  end
  begin
     id 30
     name rthumb
     direction -0.707107 -6.34804e-011 0.707107   
     length 0.811329   
     axis -90 -45 -2.85299e-015   XYZ
    dof rx rz
    limits (-45.0 45.0)
           (-45.0 45.0)
  end
:hierarchy
  begin
    root lhipjoint rhipjoint lowerback
    lhipjoint lfemur
    lfemur ltibia
    ltibia lfoot
    lfoot ltoes
    rhipjoint rfemur
    rfemur rtibia
    rtibia rfoot
    rfoot rtoes
    lowerback upperback
    upperback thorax
    thorax lowerneck lclavicle rclavicle
    lowerneck upperneck
    upperneck head
    lclavicle lhumerus
    lhumerus lradius
    lradius lwrist
    lwrist lhand lthumb
    lhand lfingers
    rclavicle rhumerus
    rhumerus rradius
    rradius rwrist
    rwrist rhand rthumb
    rhand rfingers
  end

#!OML:ASF F:\VICON\USERDATA\INSTALL\SteveWalk\SteveWalk.ASF
:FULLY-SPECIFIED
:DEGREES
221
root 1.25172 16.2062 3.57511 17.6325 5.66404 -0.570761
lowerback -15.9691 -2.11257 3.53056
upperback -4.91672 -3.45282 2.57007
thorax 3.65966 -1.69777 0.0657334
lowerneck -6.27389 -0.688656 -0.678213
upperneck 13.0486 -0.723791 -1.01242
head 4.94756 -0.452311 -0.246068
rclavicle 3.18552e-014 -1.27222e-014
rhumerus -84.633 -43.7387 -8.70292
rradius 11.303
rwrist 56.0826
rhand -13.5957 -35.4946
rfingers 7.12502
rthumb 12.5189 -65.0995
lclavicle 3.18552e-014 -1.27222e-014
lhumerus -25.4483 -9.20876 86.3642
lradius 59.0361
lwrist 10.7666
lhand -25.2939 -21.3936
lfingers 7.12502
lthumb 1.22775 8.58258
rfemur -47.5022 -3.2653 26.5623
rtibia 36.8679
rfoot -9.93713 2.33725
rtoes -22.7734
lfemur -13.0707 0.162457 -16.9653
ltibia 55.2515
lfoot 18.7198 -15.3002
ltoes -22.9899
222
root 1.24226 16.2314 3.78173 17.7232 5.51035 -0.771986
lowerback -15.8162 -1.979 3.72111
upperback -4.99416 -3.29612 2.59698
thorax 3.48958 -1.62404 0.0240366
lowerneck -6.24048 -0.744428 -0.412345
upperneck 13.0386 -0.796536 -1.26375
head 4.93626 -0.490771 -0.371707
rclavicle -2.23757e-014 1.66979e-014
rhumerus -82.1843 -44.2849 -12.0672
rradius 11.3816
rwrist 54.1486
rhand -13.8225 -35.4706
rfingers 7.12502
rthumb 12.3002 -65.0889
lclavicle -2.23757e-014 1.66979e-014
lhumerus -26.3829 -8.73932 86.7493
lradius 58.3769
lwrist 10.1715
lhand -24.6055 -21.3151
lfingers 7.12502
lthumb 1.8926 8.65624
rfemur -46.7588 -3.34154 26.9899
rtibia 36.9233
rfoot -10.7529 2.13397
rtoes -22.5913
lfemur -15.0358 0.649405 -16.724
ltibia 58.1261
lfoot 18.1942 -14.7085
ltoes -26.6534
223
root 1.23313 16.2531 3.98347 17.7531 5.35741 -0.949759
lowerback -15.6246 -1.852 3.85945
upperback -5.07722 -3.13736 2.63763
thorax 3.29744 -1.54983 0.0270148
lowerneck -6.05245 -0.784263 -0.24653
upperneck 13.0097 -0.842032 -1.48144
head 4.89337 -0.517935 -0.467936
rclavicle -1.80894e-014 -3.18055e-015
rhumerus -79.7293 -44.7657 -15.2964
rradius 11.4849
rwrist 52.4469
rhand -13.9646 -35.1367
rfingers 7.12502
rthumb 12.1632 -64.7631
lclavicle -1.80894e-014 -3.18055e-015
lhumerus -27.1361 -8.23699 87.1076
lradius 57.3724
lwrist 9.37485
lhand -23.8806 -21.3699
lfingers 7.12502
lthumb 2.59263 8.59406
rfemur -45.9938 -3.46567 27.4134
rtibia 36.9359
rfoot -11.515 1.94346
rtoes -20.4092
lfemur -16.7698 1.15305 -16.5167
ltibia 60.7456
lfoot 16.5329 -14.0315
ltoes -28.0878
224
root 1.22289 16.276 4.18505 17.7759 5.12433 -1.09926
lowerback -15.526 -1.6979 3.91467
upperback -5.12952 -2.93638 2.67559
thorax 3.19338 -1.45264 0.0760642
lowerneck -5.76685 -0.815427 -0.279453
upperneck 13.023 -0.88785 -1.44076
head 4.84916 -0.538526 -0.451239
rclavicle 7.46685e-015 1.66979e-014
rhumerus -77.0334 -45.1568 -18.7643
rradius 11.5963
rwrist 50.5861
rhand -14.1643 -34.7292
rfingers 7.12502
rthumb 11.9707 -64.3669
lclavicle 7.46685e-015 1.66979e-014
lhumerus -27.8652 -7.52338 87.5164
lradius 56.1923
lwrist 8.45503
lhand -23.0075 -21.4456
lfingers 7.12502
lthumb 3.43589 8.50647
rfemur -45.2359 -3.33765 27.6337
rtibia 36.9033
rfoot -12.1516 1.96395
rtoes -21.6163
lfemur -18.2967 1.61879 -16.3379
ltibia 63.0655
lfoot 14.4694 -12.577
ltoes -27.1601
225
root 1.21576 16.3075 4.39479 17.7722 4.75041 -1.17607
lowerback -15.5312 -1.50638 3.88275
upperback -5.11283 -2.68198 2.70377
thorax 3.22285 -1.32579 0.167693
lowerneck -5.50348 -0.858444 -0.453477
upperneck 12.9724 -0.939113 -1.37186
head 4.7901 -0.56661 -0.402726
rclavicle 4.28629e-015 0
rhumerus -73.7789 -45.323 -22.8927
rradius 11.7841
rwrist 48.4569
rhand -14.4526 -34.3128
rfingers 7.12502
rthumb 11.6927 -63.9665
lclavicle 4.28629e-015 0
lhumerus -28.6271 -6.78634 87.891
lradius 54.8659
lwrist 7.47812
lhand -22.22 -22.1537
lfingers 7.12502
lthumb 4.19637 7.7847
rfemur -44.3752 -3.32907 27.8202
rtibia 36.8662
rfoot -12.9186 2.10769
rtoes -21.8605
lfemur -19.8621 2.12127 -16.3245
ltibia 65.1473
lfoot 12.4046 -10.6622
ltoes -24.6877
226
root 1.21158 16.3449 4.61159 17.7686 4.2591 -1.22985
lowerback -15.6334 -1.2819 3.84001
upperback -5.00952 -2.39111 2.70144
thorax 3.39493 -1.17802 0.236132
lowerneck -5.51681 -0.90204 -0.443378
upperneck 12.9409 -0.98729 -1.46296
head 4.7819 -0.595046 -0.435166
rclavicle 1.05107e-014 -1.90833e-014
rhumerus -69.8846 -45.1496 -27.8332
rradius 12.0399
rwrist 45.7428
rhand -14.7451 -33.7442
rfingers 7.12502
rthumb 11.4106 -63.4137
lclavicle 1.05107e-014 -1.90833e-014
lhumerus -29.2854 -6.11424 88.1804
lradius 53.4188
lwrist 6.20244
lhand -21.8299 -22.898
lfingers 7.12502
lthumb 4.57303 7.03266
rfemur -43.3889 -3.36872 27.9771
rtibia 36.7381
rfoot -13.5837 2.42409
rtoes -20.0311
lfemur -21.6283 2.77575 -16.4316
ltibia 67.0598
lfoot 10.561 -8.96564
ltoes -21.5186
227
root 1.20586 16.377 4.82384 17.8774 3.81696 -1.17642
lowerback -15.8187 -1.12704 3.66563
upperback -4.92312 -2.17456 2.67866
thorax 3.5961 -1.06702 0.343501
lowerneck -5.66942 -0.904938 -0.358822
upperneck 12.9766 -0.980775 -1.59627
head 4.81751 -0.596567 -0.490853
rclavicle 5.14355e-015 -2.22639e-014
rhumerus -66.2416 -45.046 -32.2547
rradius 12.3013
rwrist 43.3634
rhand -15.1174 -33.0672
rfingers 7.12502
rthumb 11.0515 -62.7562
lclavicle 5.14355e-015 -2.22639e-014
lhumerus -29.795 -5.50384 88.388
lradius 51.8705
lwrist 4.8158
lhand -21.8432 -22.715
lfingers 7.12502
lthumb 4.5602 7.21592
rfemur -42.4957 -3.31967 27.9631
rtibia 36.5513
rfoot -14.0408 2.65117
rtoes -16.6568
lfemur -23.6078 3.31912 -16.662
ltibia 68.8193
lfoot 9.01839 -7.68044
ltoes -17.6905
